<svg id="Layer_1" data-name="Layer 1" xmlns="http://www.w3.org/2000/svg"
    width="24px" height="24px" viewBox="0 0 2000 2000">
    <defs>
        <style>.cls-1{fill:#92d7e7;stroke:#92d7e7;stroke-miterlimit:10;}.cls-2,.cls-4,.cls-5{fill:none;}.cls-2{stroke:#00bbd6;}.cls-2,.cls-4,.cls-5,.cls-6{stroke-linecap:round;}.cls-2,.cls-3,.cls-4,.cls-5,.cls-6{stroke-linejoin:round;stroke-width:80px;}.cls-3{fill:#9acd72;stroke:#035946;}.cls-4{stroke:#399f49;}.cls-5,.cls-6{stroke:#333;}.cls-6{fill:#b6a555;}</style>
    </defs>
    <polygon class="cls-1" points="1796.19 1160 1375 1160 625 1160 625 1225.42 483.58 1366.84 203.81 1366.84 203.81 1566.84 625 1566.84 1375 1566.84 1375 1508.27 1520.17 1363.1 1517.07 1360 1796.19 1360 1796.19 1160"/>
    <line class="cls-2" x1="790.17" y1="1366.84" x2="625" y2="1366.84"/>
    <line class="cls-2" x1="1200" y1="1366.84" x2="1375" y2="1366.84"/>
    <path class="cls-3" d="M1000,210.66c-439.72,0-796.19,356.46-796.19,796.18H1796.19C1796.19,567.12,1439.72,210.66,1000,210.66Z"/>
    <line class="cls-4" x1="437.5" y1="847.02" x2="1562.5" y2="847.02"/>
    <line class="cls-4" x1="812.5" y1="528.11" x2="1187.5" y2="528.11"/>
    <line class="cls-4" x1="625" y1="687.56" x2="1375" y2="687.56"/>
    <polyline class="cls-5" points="800 1166.84 625 1166.84 437.5 1366.84 203.81 1366.84"/>
    <line class="cls-5" x1="790.17" y1="1566.84" x2="625" y2="1566.84"/>
    <line class="cls-5" x1="203.81" y1="1566.84" x2="437.5" y2="1566.84"/>
    <line class="cls-5" x1="1375" y1="1166.84" x2="1200" y2="1166.84"/>
    <polyline class="cls-5" points="1200 1566.84 1375 1566.84 1562.5 1366.84 1796.19 1366.84"/>
    <line class="cls-5" x1="1562.5" y1="1166.84" x2="1796.19" y2="1166.84"/>
    <rect class="cls-6" x="800" y="1166.84" width="400" height="400"/>
</svg>